<svg xmlns="http://www.w3.org/2000/svg" width="1920" height="1080"><path d="M188,-257L628,-247L839,-255Z" fill="#cdebc6" stroke="#cdebc6" stroke-width="1.51"/><path d="M563,1276L87,1319L1035,1327Z" fill="#5e7791" stroke="#5e7791" stroke-width="1.51"/><path d="M1384,1328L1035,1327L1663,1338Z" fill="#1c4f8b" stroke="#1c4f8b" stroke-width="1.51"/><path d="M1318,-201L1507,-218L1669,-255Z" fill="#9eafbf" stroke="#9eafbf" stroke-width="1.51"/><path d="M1133,-206L1318,-201L1669,-255Z" fill="#a0bac3" stroke="#a0bac3" stroke-width="1.51"/><path d="M839,-255L1133,-206L1669,-255Z" fill="#a3c9ca" stroke="#a3c9ca" stroke-width="1.51"/><path d="M1926,1263L1663,1338L2057,1303Z" fill="#1a2b7c" stroke="#1a2b7c" stroke-width="1.51"/><path d="M839,-255L1669,-255L2061,-257Z" fill="#9fadc1" stroke="#9fadc1" stroke-width="1.51"/><path d="M188,-257L839,-255L2061,-257Z" fill="#aad5cc" stroke="#aad5cc" stroke-width="1.51"/><path d="M1669,-255L1794,-213L2061,-257Z" fill="#9c94b5" stroke="#9c94b5" stroke-width="1.51"/><path d="M2062,1129L2057,1303L2083,981Z" fill="#1b2e80" stroke="#1b2e80" stroke-width="1.51"/><path d="M1970,566L1968,691L2085,712Z" fill="#2d639c" stroke="#2d639c" stroke-width="1.51"/><path d="M1970,566L2085,712L2098,503Z" fill="#306697" stroke="#306697" stroke-width="1.51"/><path d="M1934,-44L1963,103L2105,-102Z" fill="#878797" stroke="#878797" stroke-width="1.51"/><path d="M2061,-257L1933,-168L2105,-102Z" fill="#8e899c" stroke="#8e899c" stroke-width="1.51"/><path d="M2083,981L2057,1303L2108,814Z" fill="#1b3883" stroke="#1b3883" stroke-width="1.51"/><path d="M1902,829L2083,981L2108,814Z" fill="#204b90" stroke="#204b90" stroke-width="1.51"/><path d="M2098,503L2085,712L2108,814Z" fill="#255d92" stroke="#255d92" stroke-width="1.51"/><path d="M2105,-102L1963,103L2119,130Z" fill="#7e8291" stroke="#7e8291" stroke-width="1.51"/><path d="M1963,103L2098,250L2119,130Z" fill="#717d91" stroke="#717d91" stroke-width="1.51"/><path d="M2098,250L1972,342L2125,376Z" fill="#537493" stroke="#537493" stroke-width="1.51"/><path d="M1972,342L2098,503L2125,376Z" fill="#487094" stroke="#487094" stroke-width="1.51"/><path d="M2098,503L2108,814L2125,376Z" fill="#2f6692" stroke="#2f6692" stroke-width="1.51"/><path d="M2119,130L2098,250L2125,376Z" fill="#5f768d" stroke="#5f768d" stroke-width="1.51"/><path d="M1963,103L1936,241L2098,250Z" fill="#6f7f99" stroke="#6f7f99" stroke-width="1.51"/><path d="M1926,1263L2057,1303L2062,1129Z" fill="#192a79" stroke="#192a79" stroke-width="1.51"/><path d="M1972,342L1970,566L2098,503Z" fill="#42709b" stroke="#42709b" stroke-width="1.51"/><path d="M2085,712L1968,691L2108,814Z" fill="#225a96" stroke="#225a96" stroke-width="1.51"/><path d="M1968,691L1902,829L2108,814Z" fill="#24589a" stroke="#24589a" stroke-width="1.51"/><path d="M1930,1118L2062,1129L2083,981Z" fill="#1e3687" stroke="#1e3687" stroke-width="1.51"/><path d="M1933,-168L1934,-44L2105,-102Z" fill="#8f8a9a" stroke="#8f8a9a" stroke-width="1.51"/><path d="M1895,1011L1930,1118L2083,981Z" fill="#213c8f" stroke="#213c8f" stroke-width="1.51"/><path d="M1936,241L1972,342L2098,250Z" fill="#607a99" stroke="#607a99" stroke-width="1.51"/><path d="M1930,1118L1926,1263L2062,1129Z" fill="#1e2f87" stroke="#1e2f87" stroke-width="1.51"/><path d="M1902,829L1895,1011L2083,981Z" fill="#214694" stroke="#214694" stroke-width="1.51"/><path d="M1745,1273L1663,1338L1926,1263Z" fill="#1d3283" stroke="#1d3283" stroke-width="1.51"/><path d="M1794,-213L1933,-168L2061,-257Z" fill="#968fab" stroke="#968fab" stroke-width="1.51"/><path d="M1815,986L1895,1011L1902,829Z" fill="#264a9e" stroke="#264a9e" stroke-width="1.51"/><path d="M1808,65L1780,230L1936,241Z" fill="#7b88a8" stroke="#7b88a8" stroke-width="1.51"/><path d="M1808,65L1936,241L1963,103Z" fill="#7f87a2" stroke="#7f87a2" stroke-width="1.51"/><path d="M1934,-44L1808,65L1963,103Z" fill="#898aa2" stroke="#898aa2" stroke-width="1.51"/><path d="M1773,785L1902,829L1968,691Z" fill="#2a5ea7" stroke="#2a5ea7" stroke-width="1.51"/><path d="M1749,579L1751,720L1968,691Z" fill="#346cac" stroke="#346cac" stroke-width="1.51"/><path d="M1749,579L1968,691L1970,566Z" fill="#376ca8" stroke="#376ca8" stroke-width="1.51"/><path d="M1809,397L1749,579L1970,566Z" fill="#4376ad" stroke="#4376ad" stroke-width="1.51"/><path d="M1809,397L1970,566L1972,342Z" fill="#4d76a5" stroke="#4d76a5" stroke-width="1.51"/><path d="M1936,241L1809,397L1972,342Z" fill="#5d7ca4" stroke="#5d7ca4" stroke-width="1.51"/><path d="M1751,720L1773,785L1968,691Z" fill="#2d66ab" stroke="#2d66ab" stroke-width="1.51"/><path d="M1806,1157L1926,1263L1930,1118Z" fill="#22328e" stroke="#22328e" stroke-width="1.51"/><path d="M1933,-168L1838,-53L1934,-44Z" fill="#948ea2" stroke="#948ea2" stroke-width="1.51"/><path d="M1838,-53L1808,65L1934,-44Z" fill="#918ea6" stroke="#918ea6" stroke-width="1.51"/><path d="M1895,1011L1806,1157L1930,1118Z" fill="#253a95" stroke="#253a95" stroke-width="1.51"/><path d="M1794,-213L1838,-53L1933,-168Z" fill="#9991ac" stroke="#9991ac" stroke-width="1.51"/><path d="M1780,230L1809,397L1936,241Z" fill="#6682a9" stroke="#6682a9" stroke-width="1.51"/><path d="M1806,1157L1745,1273L1926,1263Z" fill="#20328a" stroke="#20328a" stroke-width="1.51"/><path d="M1815,986L1806,1157L1895,1011Z" fill="#26419a" stroke="#26419a" stroke-width="1.51"/><path d="M1773,785L1815,986L1902,829Z" fill="#2856a4" stroke="#2856a4" stroke-width="1.51"/><path d="M1644,107L1780,230L1808,65Z" fill="#8392aa" stroke="#8392aa" stroke-width="1.51"/><path d="M1667,549L1749,579L1809,397Z" fill="#427eb0" stroke="#427eb0" stroke-width="1.51"/><path d="M1780,230L1646,336L1809,397Z" fill="#6087ad" stroke="#6087ad" stroke-width="1.51"/><path d="M1773,785L1650,807L1815,986Z" fill="#285ca8" stroke="#285ca8" stroke-width="1.51"/><path d="M1650,807L1616,946L1815,986Z" fill="#2659a6" stroke="#2659a6" stroke-width="1.51"/><path d="M1651,1124L1806,1157L1815,986Z" fill="#26439b" stroke="#26439b" stroke-width="1.51"/><path d="M1642,-56L1808,65L1838,-53Z" fill="#9195a9" stroke="#9195a9" stroke-width="1.51"/><path d="M1794,-213L1642,-56L1838,-53Z" fill="#9998ac" stroke="#9998ac" stroke-width="1.51"/><path d="M1642,-56L1644,107L1808,65Z" fill="#8d98ac" stroke="#8d98ac" stroke-width="1.51"/><path d="M1646,336L1667,549L1809,397Z" fill="#4f84af" stroke="#4f84af" stroke-width="1.51"/><path d="M1616,946L1651,1124L1815,986Z" fill="#264ea1" stroke="#264ea1" stroke-width="1.51"/><path d="M1669,-255L1642,-56L1794,-213Z" fill="#9b9db4" stroke="#9b9db4" stroke-width="1.51"/><path d="M1651,1124L1745,1273L1806,1157Z" fill="#243c94" stroke="#243c94" stroke-width="1.51"/><path d="M1606,244L1646,336L1780,230Z" fill="#698fae" stroke="#698fae" stroke-width="1.51"/><path d="M1644,107L1606,244L1780,230Z" fill="#7894ad" stroke="#7894ad" stroke-width="1.51"/><path d="M1749,579L1667,549L1751,720Z" fill="#3677b0" stroke="#3677b0" stroke-width="1.51"/><path d="M1751,720L1650,807L1773,785Z" fill="#2969ad" stroke="#2969ad" stroke-width="1.51"/><path d="M1651,1124L1663,1338L1745,1273Z" fill="#203b8d" stroke="#203b8d" stroke-width="1.51"/><path d="M1667,549L1581,745L1751,720Z" fill="#2f76b2" stroke="#2f76b2" stroke-width="1.51"/><path d="M1581,745L1650,807L1751,720Z" fill="#276fb0" stroke="#276fb0" stroke-width="1.51"/><path d="M1507,-218L1509,-60L1642,-56Z" fill="#9aa8b3" stroke="#9aa8b3" stroke-width="1.51"/><path d="M1509,-60L1510,95L1642,-56Z" fill="#91a5b0" stroke="#91a5b0" stroke-width="1.51"/><path d="M1642,-56L1510,95L1644,107Z" fill="#8ca0ae" stroke="#8ca0ae" stroke-width="1.51"/><path d="M1514,294L1430,412L1646,336Z" fill="#5995b4" stroke="#5995b4" stroke-width="1.51"/><path d="M1430,412L1444,515L1646,336Z" fill="#4e94b6" stroke="#4e94b6" stroke-width="1.51"/><path d="M1488,1143L1520,1279L1651,1124Z" fill="#24489b" stroke="#24489b" stroke-width="1.51"/><path d="M1616,946L1516,1010L1651,1124Z" fill="#2454a4" stroke="#2454a4" stroke-width="1.51"/><path d="M1520,1279L1384,1328L1663,1338Z" fill="#1b4288" stroke="#1b4288" stroke-width="1.51"/><path d="M1651,1124L1520,1279L1663,1338Z" fill="#20408f" stroke="#20408f" stroke-width="1.51"/><path d="M1646,336L1444,515L1667,549Z" fill="#478bb4" stroke="#478bb4" stroke-width="1.51"/><path d="M1522,658L1581,745L1667,549Z" fill="#2f7db4" stroke="#2f7db4" stroke-width="1.51"/><path d="M1507,-218L1642,-56L1669,-255Z" fill="#9ba5b7" stroke="#9ba5b7" stroke-width="1.51"/><path d="M1444,515L1522,658L1667,549Z" fill="#3588b6" stroke="#3588b6" stroke-width="1.51"/><path d="M1481,811L1616,946L1650,807Z" fill="#2468ad" stroke="#2468ad" stroke-width="1.51"/><path d="M1510,95L1606,244L1644,107Z" fill="#809daf" stroke="#809daf" stroke-width="1.51"/><path d="M1606,244L1514,294L1646,336Z" fill="#6494b1" stroke="#6494b1" stroke-width="1.51"/><path d="M1581,745L1481,811L1650,807Z" fill="#2472b1" stroke="#2472b1" stroke-width="1.51"/><path d="M1516,1010L1488,1143L1651,1124Z" fill="#2551a1" stroke="#2551a1" stroke-width="1.51"/><path d="M1510,95L1514,294L1606,244Z" fill="#749db2" stroke="#749db2" stroke-width="1.51"/><path d="M1481,811L1516,1010L1616,946Z" fill="#2363ab" stroke="#2363ab" stroke-width="1.51"/><path d="M1522,658L1481,811L1581,745Z" fill="#247ab6" stroke="#247ab6" stroke-width="1.51"/><path d="M1187,1276L1035,1327L1384,1328Z" fill="#245b93" stroke="#245b93" stroke-width="1.51"/><path d="M1304,948L1286,1140L1488,1143Z" fill="#2862aa" stroke="#2862aa" stroke-width="1.51"/><path d="M1318,-201L1317,-85L1507,-218Z" fill="#9eb9be" stroke="#9eb9be" stroke-width="1.51"/><path d="M1507,-218L1317,-85L1509,-60Z" fill="#9cb2b7" stroke="#9cb2b7" stroke-width="1.51"/><path d="M1317,-85L1342,98L1509,-60Z" fill="#95b5b6" stroke="#95b5b6" stroke-width="1.51"/><path d="M1509,-60L1342,98L1510,95Z" fill="#8eadb4" stroke="#8eadb4" stroke-width="1.51"/><path d="M1510,95L1342,98L1514,294Z" fill="#7ea8b4" stroke="#7ea8b4" stroke-width="1.51"/><path d="M1342,98L1288,198L1514,294Z" fill="#79acb8" stroke="#79acb8" stroke-width="1.51"/><path d="M1481,811L1382,841L1516,1010Z" fill="#236eb0" stroke="#236eb0" stroke-width="1.51"/><path d="M1304,948L1488,1143L1516,1010Z" fill="#2660a9" stroke="#2660a9" stroke-width="1.51"/><path d="M1382,841L1304,948L1516,1010Z" fill="#246eb0" stroke="#246eb0" stroke-width="1.51"/><path d="M1488,1143L1384,1328L1520,1279Z" fill="#214b94" stroke="#214b94" stroke-width="1.51"/><path d="M1324,744L1481,811L1522,658Z" fill="#2382b9" stroke="#2382b9" stroke-width="1.51"/><path d="M1388,552L1324,744L1522,658Z" fill="#2c8cbb" stroke="#2c8cbb" stroke-width="1.51"/><path d="M1444,515L1388,552L1522,658Z" fill="#348fba" stroke="#348fba" stroke-width="1.51"/><path d="M1287,357L1430,412L1514,294Z" fill="#58a0b9" stroke="#58a0b9" stroke-width="1.51"/><path d="M1288,198L1287,357L1514,294Z" fill="#67a8b9" stroke="#67a8b9" stroke-width="1.51"/><path d="M1324,744L1382,841L1481,811Z" fill="#227fb8" stroke="#227fb8" stroke-width="1.51"/><path d="M1286,1140L1384,1328L1488,1143Z" fill="#26559e" stroke="#26559e" stroke-width="1.51"/><path d="M839,-255L1037,-197L1133,-206Z" fill="#a9d7c8" stroke="#a9d7c8" stroke-width="1.51"/><path d="M1430,412L1388,552L1444,515Z" fill="#4097bb" stroke="#4097bb" stroke-width="1.51"/><path d="M1287,357L1388,552L1430,412Z" fill="#499fbc" stroke="#499fbc" stroke-width="1.51"/><path d="M256,1277L87,1319L563,1276Z" fill="#7b8192" stroke="#7b8192" stroke-width="1.51"/><path d="M1224,1014L1286,1140L1304,948Z" fill="#286eb0" stroke="#286eb0" stroke-width="1.51"/><path d="M1286,1140L1187,1276L1384,1328Z" fill="#255a9b" stroke="#255a9b" stroke-width="1.51"/><path d="M1217,566L1324,744L1388,552Z" fill="#2d97c0" stroke="#2d97c0" stroke-width="1.51"/><path d="M1287,357L1217,566L1388,552Z" fill="#3fa3c0" stroke="#3fa3c0" stroke-width="1.51"/><path d="M1324,744L1194,806L1382,841Z" fill="#2187bc" stroke="#2187bc" stroke-width="1.51"/><path d="M1194,806L1304,948L1382,841Z" fill="#227fb8" stroke="#227fb8" stroke-width="1.51"/><path d="M860,1265L563,1276L1035,1327Z" fill="#446f96" stroke="#446f96" stroke-width="1.51"/><path d="M1218,364L1217,566L1287,357Z" fill="#4caac0" stroke="#4caac0" stroke-width="1.51"/><path d="M1217,566L1151,694L1324,744Z" fill="#289ac1" stroke="#289ac1" stroke-width="1.51"/><path d="M1160,108L1288,198L1342,98Z" fill="#86bbbb" stroke="#86bbbb" stroke-width="1.51"/><path d="M1167,-8L1160,108L1342,98Z" fill="#8fc0bb" stroke="#8fc0bb" stroke-width="1.51"/><path d="M1317,-85L1167,-8L1342,98Z" fill="#94beba" stroke="#94beba" stroke-width="1.51"/><path d="M1168,259L1218,364L1287,357Z" fill="#5eb1be" stroke="#5eb1be" stroke-width="1.51"/><path d="M1168,259L1287,357L1288,198Z" fill="#6ab3bd" stroke="#6ab3bd" stroke-width="1.51"/><path d="M1133,-206L1317,-85L1318,-201Z" fill="#a0c4c2" stroke="#a0c4c2" stroke-width="1.51"/><path d="M1151,694L1194,806L1324,744Z" fill="#2193c1" stroke="#2193c1" stroke-width="1.51"/><path d="M1133,-206L1167,-8L1317,-85Z" fill="#9fc7bd" stroke="#9fc7bd" stroke-width="1.51"/><path d="M1224,1014L1191,1128L1286,1140Z" fill="#2c6aad" stroke="#2c6aad" stroke-width="1.51"/><path d="M1191,1128L1187,1276L1286,1140Z" fill="#2d63a7" stroke="#2d63a7" stroke-width="1.51"/><path d="M1194,806L1224,1014L1304,948Z" fill="#257cb6" stroke="#257cb6" stroke-width="1.51"/><path d="M1160,108L1168,259L1288,198Z" fill="#7cbcbc" stroke="#7cbcbc" stroke-width="1.51"/><path d="M1079,522L1151,694L1217,566Z" fill="#34a5c3" stroke="#34a5c3" stroke-width="1.51"/><path d="M1079,522L1217,566L1218,364Z" fill="#44acc2" stroke="#44acc2" stroke-width="1.51"/><path d="M1058,394L1079,522L1218,364Z" fill="#51b2c1" stroke="#51b2c1" stroke-width="1.51"/><path d="M1009,1113L1191,1128L1224,1014Z" fill="#3270af" stroke="#3270af" stroke-width="1.51"/><path d="M990,979L1009,1113L1224,1014Z" fill="#357ab2" stroke="#357ab2" stroke-width="1.51"/><path d="M1194,806L991,886L1224,1014Z" fill="#2c85b8" stroke="#2c85b8" stroke-width="1.51"/><path d="M991,886L990,979L1224,1014Z" fill="#3182b5" stroke="#3182b5" stroke-width="1.51"/><path d="M1168,259L1058,394L1218,364Z" fill="#5eb5bf" stroke="#5eb5bf" stroke-width="1.51"/><path d="M1133,-206L1037,-197L1167,-8Z" fill="#a3cec0" stroke="#a3cec0" stroke-width="1.51"/><path d="M1037,-197L989,-18L1167,-8Z" fill="#a2d0bb" stroke="#a2d0bb" stroke-width="1.51"/><path d="M1009,1113L1035,1327L1187,1276Z" fill="#31679f" stroke="#31679f" stroke-width="1.51"/><path d="M1009,1113L1187,1276L1191,1128Z" fill="#3469a9" stroke="#3469a9" stroke-width="1.51"/><path d="M1151,694L1038,709L1194,806Z" fill="#299ac1" stroke="#299ac1" stroke-width="1.51"/><path d="M1038,709L991,886L1194,806Z" fill="#2d95bf" stroke="#2d95bf" stroke-width="1.51"/><path d="M1160,108L1025,286L1168,259Z" fill="#7abfbd" stroke="#7abfbd" stroke-width="1.51"/><path d="M1025,286L1058,394L1168,259Z" fill="#65bbbe" stroke="#65bbbe" stroke-width="1.51"/><path d="M1009,87L1025,286L1160,108Z" fill="#86c6bd" stroke="#86c6bd" stroke-width="1.51"/><path d="M1079,522L1038,709L1151,694Z" fill="#34a5c2" stroke="#34a5c2" stroke-width="1.51"/><path d="M1009,87L1160,108L1167,-8Z" fill="#92c8bc" stroke="#92c8bc" stroke-width="1.51"/><path d="M989,-18L1009,87L1167,-8Z" fill="#98cdbc" stroke="#98cdbc" stroke-width="1.51"/><path d="M937,591L1038,709L1079,522Z" fill="#3aacc3" stroke="#3aacc3" stroke-width="1.51"/><path d="M764,1241L563,1276L860,1265Z" fill="#4f749a" stroke="#4f749a" stroke-width="1.51"/><path d="M1009,87L931,118L1025,286Z" fill="#88cbbd" stroke="#88cbbd" stroke-width="1.51"/><path d="M1009,1113L918,1139L1035,1327Z" fill="#3a70a7" stroke="#3a70a7" stroke-width="1.51"/><path d="M918,1139L860,1265L1035,1327Z" fill="#3a6e9f" stroke="#3a6e9f" stroke-width="1.51"/><path d="M937,591L936,641L1038,709Z" fill="#39acc3" stroke="#39acc3" stroke-width="1.51"/><path d="M836,441L937,591L1058,394Z" fill="#50bac3" stroke="#50bac3" stroke-width="1.51"/><path d="M1058,394L937,591L1079,522Z" fill="#46b4c3" stroke="#46b4c3" stroke-width="1.51"/><path d="M931,118L905,287L1025,286Z" fill="#7cc8be" stroke="#7cc8be" stroke-width="1.51"/><path d="M842,-111L989,-18L1037,-197Z" fill="#a7d7be" stroke="#a7d7be" stroke-width="1.51"/><path d="M841,800L991,886L1038,709Z" fill="#359dbf" stroke="#359dbf" stroke-width="1.51"/><path d="M1025,286L905,287L1058,394Z" fill="#66c0c0" stroke="#66c0c0" stroke-width="1.51"/><path d="M905,287L836,441L1058,394Z" fill="#61c0c0" stroke="#61c0c0" stroke-width="1.51"/><path d="M936,641L841,800L1038,709Z" fill="#39a7c2" stroke="#39a7c2" stroke-width="1.51"/><path d="M990,979L898,1000L1009,1113Z" fill="#3a80b2" stroke="#3a80b2" stroke-width="1.51"/><path d="M839,-255L842,-111L1037,-197Z" fill="#aedbc5" stroke="#aedbc5" stroke-width="1.51"/><path d="M898,1000L918,1139L1009,1113Z" fill="#3f7caf" stroke="#3f7caf" stroke-width="1.51"/><path d="M989,-18L931,118L1009,87Z" fill="#96d1bc" stroke="#96d1bc" stroke-width="1.51"/><path d="M842,-111L931,118L989,-18Z" fill="#a0d6bb" stroke="#a0d6bb" stroke-width="1.51"/><path d="M898,1000L990,979L991,886Z" fill="#3889b6" stroke="#3889b6" stroke-width="1.51"/><path d="M841,800L898,1000L991,886Z" fill="#3e92b9" stroke="#3e92b9" stroke-width="1.51"/><path d="M188,-257L285,-222L628,-247Z" fill="#e0f3c2" stroke="#e0f3c2" stroke-width="1.51"/><path d="M841,800L777,993L898,1000Z" fill="#4890b6" stroke="#4890b6" stroke-width="1.51"/><path d="M785,380L836,441L905,287Z" fill="#6bc4bf" stroke="#6bc4bf" stroke-width="1.51"/><path d="M699,232L905,287L931,118Z" fill="#88cebc" stroke="#88cebc" stroke-width="1.51"/><path d="M731,52L699,232L931,118Z" fill="#9bd5ba" stroke="#9bd5ba" stroke-width="1.51"/><path d="M842,-111L731,52L931,118Z" fill="#a4d8ba" stroke="#a4d8ba" stroke-width="1.51"/><path d="M699,673L841,800L936,641Z" fill="#4aacc1" stroke="#4aacc1" stroke-width="1.51"/><path d="M748,522L936,641L937,591Z" fill="#4ab5c3" stroke="#4ab5c3" stroke-width="1.51"/><path d="M836,441L748,522L937,591Z" fill="#55bbc2" stroke="#55bbc2" stroke-width="1.51"/><path d="M898,1000L756,1143L918,1139Z" fill="#4a7eae" stroke="#4a7eae" stroke-width="1.51"/><path d="M748,522L699,673L936,641Z" fill="#52b6c1" stroke="#52b6c1" stroke-width="1.51"/><path d="M777,993L756,1143L898,1000Z" fill="#4d84b0" stroke="#4d84b0" stroke-width="1.51"/><path d="M756,1143L860,1265L918,1139Z" fill="#4a76a8" stroke="#4a76a8" stroke-width="1.51"/><path d="M756,1143L764,1241L860,1265Z" fill="#4d75a2" stroke="#4d75a2" stroke-width="1.51"/><path d="M699,232L785,380L905,287Z" fill="#7bcabd" stroke="#7bcabd" stroke-width="1.51"/><path d="M628,-247L685,-221L839,-255Z" fill="#bce4c7" stroke="#bce4c7" stroke-width="1.51"/><path d="M285,-222L474,-201L628,-247Z" fill="#d5eec2" stroke="#d5eec2" stroke-width="1.51"/><path d="M682,795L777,993L841,800Z" fill="#509bb9" stroke="#509bb9" stroke-width="1.51"/><path d="M681,-25L731,52L842,-111Z" fill="#afddb9" stroke="#afddb9" stroke-width="1.51"/><path d="M839,-255L685,-221L842,-111Z" fill="#b6dfc4" stroke="#b6dfc4" stroke-width="1.51"/><path d="M699,673L682,795L841,800Z" fill="#52aabf" stroke="#52aabf" stroke-width="1.51"/><path d="M685,-221L681,-25L842,-111Z" fill="#b6e0bb" stroke="#b6e0bb" stroke-width="1.51"/><path d="M785,380L748,522L836,441Z" fill="#65c1c0" stroke="#65c1c0" stroke-width="1.51"/><path d="M638,106L699,232L731,52Z" fill="#a2dab8" stroke="#a2dab8" stroke-width="1.51"/><path d="M682,795L591,870L777,993Z" fill="#599bb7" stroke="#599bb7" stroke-width="1.51"/><path d="M591,870L586,990L777,993Z" fill="#5c94b2" stroke="#5c94b2" stroke-width="1.51"/><path d="M586,990L756,1143L777,993Z" fill="#5888ae" stroke="#5888ae" stroke-width="1.51"/><path d="M624,429L748,522L785,380Z" fill="#6cc4bf" stroke="#6cc4bf" stroke-width="1.51"/><path d="M699,232L624,429L785,380Z" fill="#7acbbc" stroke="#7acbbc" stroke-width="1.51"/><path d="M593,506L699,673L748,522Z" fill="#61bec0" stroke="#61bec0" stroke-width="1.51"/><path d="M586,990L532,1145L756,1143Z" fill="#6286ab" stroke="#6286ab" stroke-width="1.51"/><path d="M532,1145L563,1276L756,1143Z" fill="#617ea4" stroke="#617ea4" stroke-width="1.51"/><path d="M756,1143L563,1276L764,1241Z" fill="#5578a0" stroke="#5578a0" stroke-width="1.51"/><path d="M624,429L593,506L748,522Z" fill="#6cc4bf" stroke="#6cc4bf" stroke-width="1.51"/><path d="M546,-69L681,-25L685,-221Z" fill="#bde4b9" stroke="#bde4b9" stroke-width="1.51"/><path d="M593,506L574,677L699,673Z" fill="#67bcbf" stroke="#67bcbf" stroke-width="1.51"/><path d="M582,220L624,429L699,232Z" fill="#8bd0ba" stroke="#8bd0ba" stroke-width="1.51"/><path d="M681,-25L638,106L731,52Z" fill="#acddb8" stroke="#acddb8" stroke-width="1.51"/><path d="M480,1242L256,1277L563,1276Z" fill="#717f97" stroke="#717f97" stroke-width="1.51"/><path d="M628,-247L546,-69L685,-221Z" fill="#c2e6bf" stroke="#c2e6bf" stroke-width="1.51"/><path d="M574,677L682,795L699,673Z" fill="#5db2be" stroke="#5db2be" stroke-width="1.51"/><path d="M638,106L582,220L699,232Z" fill="#9dd8b9" stroke="#9dd8b9" stroke-width="1.51"/><path d="M546,-69L638,106L681,-25Z" fill="#b6e1b6" stroke="#b6e1b6" stroke-width="1.51"/><path d="M574,677L591,870L682,795Z" fill="#62acbc" stroke="#62acbc" stroke-width="1.51"/><path d="M574,677L488,823L591,870Z" fill="#6cadbb" stroke="#6cadbb" stroke-width="1.51"/><path d="M582,220L486,434L624,429Z" fill="#89d0bb" stroke="#89d0bb" stroke-width="1.51"/><path d="M474,-201L546,-69L628,-247Z" fill="#cae9be" stroke="#cae9be" stroke-width="1.51"/><path d="M393,99L582,220L638,106Z" fill="#b0dfb7" stroke="#b0dfb7" stroke-width="1.51"/><path d="M485,-13L393,99L638,106Z" fill="#bde4b6" stroke="#bde4b6" stroke-width="1.51"/><path d="M546,-69L485,-13L638,106Z" fill="#bde4b6" stroke="#bde4b6" stroke-width="1.51"/><path d="M411,554L574,677L593,506Z" fill="#77c4be" stroke="#77c4be" stroke-width="1.51"/><path d="M486,434L593,506L624,429Z" fill="#7dcabd" stroke="#7dcabd" stroke-width="1.51"/><path d="M532,1145L480,1242L563,1276Z" fill="#6a7f9e" stroke="#6a7f9e" stroke-width="1.51"/><path d="M411,554L416,634L574,677Z" fill="#7ec2be" stroke="#7ec2be" stroke-width="1.51"/><path d="M393,99L398,244L582,220Z" fill="#b3e1b6" stroke="#b3e1b6" stroke-width="1.51"/><path d="M398,244L486,434L582,220Z" fill="#9bd7b9" stroke="#9bd7b9" stroke-width="1.51"/><path d="M404,979L532,1145L586,990Z" fill="#7291ae" stroke="#7291ae" stroke-width="1.51"/><path d="M488,823L404,979L586,990Z" fill="#739db2" stroke="#739db2" stroke-width="1.51"/><path d="M488,823L586,990L591,870Z" fill="#6ba0b5" stroke="#6ba0b5" stroke-width="1.51"/><path d="M486,434L411,554L593,506Z" fill="#82cbbd" stroke="#82cbbd" stroke-width="1.51"/><path d="M404,979L429,1142L532,1145Z" fill="#788dab" stroke="#788dab" stroke-width="1.51"/><path d="M416,634L488,823L574,677Z" fill="#76b9bd" stroke="#76b9bd" stroke-width="1.51"/><path d="M474,-201L485,-13L546,-69Z" fill="#cceab6" stroke="#cceab6" stroke-width="1.51"/><path d="M429,1142L480,1242L532,1145Z" fill="#7484a5" stroke="#7484a5" stroke-width="1.51"/><path d="M285,-222L279,-42L474,-201Z" fill="#dff3ba" stroke="#dff3ba" stroke-width="1.51"/><path d="M474,-201L279,-42L485,-13Z" fill="#d5eeb4" stroke="#d5eeb4" stroke-width="1.51"/><path d="M398,244L299,366L486,434Z" fill="#9fd8b9" stroke="#9fd8b9" stroke-width="1.51"/><path d="M416,634L331,798L488,823Z" fill="#80b9bb" stroke="#80b9bb" stroke-width="1.51"/><path d="M331,798L404,979L488,823Z" fill="#7faab5" stroke="#7faab5" stroke-width="1.51"/><path d="M299,366L411,554L486,434Z" fill="#94d2bb" stroke="#94d2bb" stroke-width="1.51"/><path d="M279,-42L393,99L485,-13Z" fill="#cfecb4" stroke="#cfecb4" stroke-width="1.51"/><path d="M429,1142L272,1193L480,1242Z" fill="#7c86a2" stroke="#7c86a2" stroke-width="1.51"/><path d="M272,1193L256,1277L480,1242Z" fill="#7d849a" stroke="#7d849a" stroke-width="1.51"/><path d="M335,256L299,366L398,244Z" fill="#aedeb7" stroke="#aedeb7" stroke-width="1.51"/><path d="M393,99L335,256L398,244Z" fill="#bae3b6" stroke="#bae3b6" stroke-width="1.51"/><path d="M299,366L243,585L411,554Z" fill="#97d2bc" stroke="#97d2bc" stroke-width="1.51"/><path d="M287,647L331,798L416,634Z" fill="#8ac1bc" stroke="#8ac1bc" stroke-width="1.51"/><path d="M404,979L242,1003L429,1142Z" fill="#8496ac" stroke="#8496ac" stroke-width="1.51"/><path d="M242,1003L272,1193L429,1142Z" fill="#8690a9" stroke="#8690a9" stroke-width="1.51"/><path d="M-210,-180L-54,-171L188,-257Z" fill="#f5fbc3" stroke="#f5fbc3" stroke-width="1.51"/><path d="M237,124L335,256L393,99Z" fill="#c5e8b5" stroke="#c5e8b5" stroke-width="1.51"/><path d="M331,798L242,1003L404,979Z" fill="#86a4b2" stroke="#86a4b2" stroke-width="1.51"/><path d="M411,554L287,647L416,634Z" fill="#8bc8bc" stroke="#8bc8bc" stroke-width="1.51"/><path d="M243,585L287,647L411,554Z" fill="#91cbbc" stroke="#91cbbc" stroke-width="1.51"/><path d="M279,-42L237,124L393,99Z" fill="#d1edb3" stroke="#d1edb3" stroke-width="1.51"/><path d="M242,1003L143,1092L272,1193Z" fill="#8d93a9" stroke="#8d93a9" stroke-width="1.51"/><path d="M188,-104L279,-42L285,-222Z" fill="#e3f4b6" stroke="#e3f4b6" stroke-width="1.51"/><path d="M114,517L243,585L299,366Z" fill="#9fd6bb" stroke="#9fd6bb" stroke-width="1.51"/><path d="M169,948L242,1003L331,798Z" fill="#8da8b2" stroke="#8da8b2" stroke-width="1.51"/><path d="M128,797L169,948L331,798Z" fill="#90b2b5" stroke="#90b2b5" stroke-width="1.51"/><path d="M287,647L121,734L331,798Z" fill="#90c1bb" stroke="#90c1bb" stroke-width="1.51"/><path d="M121,734L128,797L331,798Z" fill="#93bbb9" stroke="#93bbb9" stroke-width="1.51"/><path d="M237,124L106,260L335,256Z" fill="#c2e6b5" stroke="#c2e6b5" stroke-width="1.51"/><path d="M134,334L299,366L335,256Z" fill="#afdeb7" stroke="#afdeb7" stroke-width="1.51"/><path d="M106,260L134,334L335,256Z" fill="#b9e2b6" stroke="#b9e2b6" stroke-width="1.51"/><path d="M136,60L237,124L279,-42Z" fill="#d8f0b3" stroke="#d8f0b3" stroke-width="1.51"/><path d="M134,334L114,517L299,366Z" fill="#abdbb9" stroke="#abdbb9" stroke-width="1.51"/><path d="M188,-257L188,-104L285,-222Z" fill="#e8f6bd" stroke="#e8f6bd" stroke-width="1.51"/><path d="M243,585L121,734L287,647Z" fill="#95c8bc" stroke="#95c8bc" stroke-width="1.51"/><path d="M188,-104L136,60L279,-42Z" fill="#e0f3b2" stroke="#e0f3b2" stroke-width="1.51"/><path d="M35,1191L256,1277L272,1193Z" fill="#89899d" stroke="#89899d" stroke-width="1.51"/><path d="M143,1092L35,1191L272,1193Z" fill="#918ea6" stroke="#918ea6" stroke-width="1.51"/><path d="M35,1191L87,1319L256,1277Z" fill="#898796" stroke="#898796" stroke-width="1.51"/><path d="M136,60L106,260L237,124Z" fill="#d1ecb4" stroke="#d1ecb4" stroke-width="1.51"/><path d="M169,948L143,1092L242,1003Z" fill="#909ead" stroke="#909ead" stroke-width="1.51"/><path d="M114,517L121,734L243,585Z" fill="#9ccdbc" stroke="#9ccdbc" stroke-width="1.51"/><path d="M114,517L14,566L121,734Z" fill="#a1d0bb" stroke="#a1d0bb" stroke-width="1.51"/><path d="M-5,121L106,260L136,60Z" fill="#d6eeb3" stroke="#d6eeb3" stroke-width="1.51"/><path d="M128,797L41,801L169,948Z" fill="#97b3b5" stroke="#97b3b5" stroke-width="1.51"/><path d="M-65,-26L136,60L188,-104Z" fill="#e7f5b2" stroke="#e7f5b2" stroke-width="1.51"/><path d="M-54,-171L-65,-26L188,-104Z" fill="#eff9b6" stroke="#eff9b6" stroke-width="1.51"/><path d="M-54,-171L188,-104L188,-257Z" fill="#eff9bb" stroke="#eff9bb" stroke-width="1.51"/><path d="M-5,121L18,235L106,260Z" fill="#cfebb6" stroke="#cfebb6" stroke-width="1.51"/><path d="M-68,1045L143,1092L169,948Z" fill="#969eac" stroke="#969eac" stroke-width="1.51"/><path d="M41,801L-68,1045L169,948Z" fill="#99aab1" stroke="#99aab1" stroke-width="1.51"/><path d="M-18,1260L-179,1293L87,1319Z" fill="#8c8797" stroke="#8c8797" stroke-width="1.51"/><path d="M14,566L-34,657L121,734Z" fill="#a2ccbd" stroke="#a2ccbd" stroke-width="1.51"/><path d="M-50,341L114,517L134,334Z" fill="#b3dfb8" stroke="#b3dfb8" stroke-width="1.51"/><path d="M-65,-26L-5,121L136,60Z" fill="#e2f4b5" stroke="#e2f4b5" stroke-width="1.51"/><path d="M-68,1045L35,1191L143,1092Z" fill="#9896aa" stroke="#9896aa" stroke-width="1.51"/><path d="M-127,964L-68,1045L41,801Z" fill="#9babb7" stroke="#9babb7" stroke-width="1.51"/><path d="M-50,341L14,566L114,517Z" fill="#addbbc" stroke="#addbbc" stroke-width="1.51"/><path d="M121,734L41,801L128,797Z" fill="#99beb8" stroke="#99beb8" stroke-width="1.51"/><path d="M106,260L-50,341L134,334Z" fill="#bde4b6" stroke="#bde4b6" stroke-width="1.51"/><path d="M18,235L-50,341L106,260Z" fill="#c3e6b8" stroke="#c3e6b8" stroke-width="1.51"/><path d="M35,1191L-18,1260L87,1319Z" fill="#8e8998" stroke="#8e8998" stroke-width="1.51"/><path d="M-34,657L41,801L121,734Z" fill="#9ec4bb" stroke="#9ec4bb" stroke-width="1.51"/><path d="M-131,742L-122,787L-34,657Z" fill="#a1c6c4" stroke="#a1c6c4" stroke-width="1.51"/><path d="M-50,341L-167,576L14,566Z" fill="#addbc3" stroke="#addbc3" stroke-width="1.51"/><path d="M-122,787L-127,964L41,801Z" fill="#9eb6bd" stroke="#9eb6bd" stroke-width="1.51"/><path d="M-34,657L-122,787L41,801Z" fill="#9fc3c1" stroke="#9fc3c1" stroke-width="1.51"/><path d="M-68,1045L-18,1260L35,1191Z" fill="#9890aa" stroke="#9890aa" stroke-width="1.51"/><path d="M-188,368L-167,576L-50,341Z" fill="#b6dfc5" stroke="#b6dfc5" stroke-width="1.51"/><path d="M-68,1045L-204,1090L-18,1260Z" fill="#9b95b1" stroke="#9b95b1" stroke-width="1.51"/><path d="M-5,121L-149,235L18,235Z" fill="#d2edbb" stroke="#d2edbb" stroke-width="1.51"/><path d="M-149,235L-50,341L18,235Z" fill="#c7e9bd" stroke="#c7e9bd" stroke-width="1.51"/><path d="M-167,576L-34,657L14,566Z" fill="#a6d2c3" stroke="#a6d2c3" stroke-width="1.51"/><path d="M-204,1090L-179,1293L-18,1260Z" fill="#958ea9" stroke="#958ea9" stroke-width="1.51"/><path d="M-65,-26L-186,65L-5,121Z" fill="#e6f5bb" stroke="#e6f5bb" stroke-width="1.51"/><path d="M-186,65L-149,235L-5,121Z" fill="#def2be" stroke="#def2be" stroke-width="1.51"/><path d="M-177,-42L-65,-26L-54,-171Z" fill="#f2fabc" stroke="#f2fabc" stroke-width="1.51"/><path d="M-167,576L-131,742L-34,657Z" fill="#a4cdc6" stroke="#a4cdc6" stroke-width="1.51"/><path d="M-210,-180L-177,-42L-54,-171Z" fill="#f6fcc4" stroke="#f6fcc4" stroke-width="1.51"/><path d="M-149,235L-188,368L-50,341Z" fill="#c2e6c2" stroke="#c2e6c2" stroke-width="1.51"/><path d="M-177,-42L-186,65L-65,-26Z" fill="#ecf8bf" stroke="#ecf8bf" stroke-width="1.51"/><path d="M-127,964L-204,1090L-68,1045Z" fill="#9ca0b8" stroke="#9ca0b8" stroke-width="1.51"/><path d="M-204,1090L-127,964L-122,787Z" fill="#9daabd" stroke="#9daabd" stroke-width="1.51"/><path d="M-131,742L-204,1090L-122,787Z" fill="#9fb4c1" stroke="#9fb4c1" stroke-width="1.51"/><path d="M-167,576L-204,1090L-131,742Z" fill="#a1bec5" stroke="#a1bec5" stroke-width="1.51"/><path d="M-186,65L-188,368L-149,235Z" fill="#d2edc3" stroke="#d2edc3" stroke-width="1.51"/><path d="M-188,368L-204,1090L-167,576Z" fill="#a6ccca" stroke="#a6ccca" stroke-width="1.51"/><path d="M-210,-180L-186,65L-177,-42Z" fill="#f2fac1" stroke="#f2fac1" stroke-width="1.51"/><path d="M-210,-180L-188,368L-186,65Z" fill="#e6f5c3" stroke="#e6f5c3" stroke-width="1.51"/><path d="M-210,-180L-204,1090L-188,368Z" fill="#b8e0ca" stroke="#b8e0ca" stroke-width="1.51"/></svg>